<mxfile host="app.diagrams.net" modified="2024-04-18T06:29:48.218Z" agent="Mozilla/5.0 (Macintosh; Intel Mac OS X 10_15_7) AppleWebKit/537.36 (KHTML, like Gecko) Chrome/123.0.0.0 Safari/537.36" etag="vv3RFKs4rzYrNcmuw1y1" version="24.2.5" type="github">
  <diagram name="第 1 页" id="8bgii7znOBYCg8nw8WPh">
    <mxGraphModel dx="954" dy="664" grid="1" gridSize="10" guides="1" tooltips="1" connect="1" arrows="1" fold="1" page="1" pageScale="1" pageWidth="1169" pageHeight="1654" math="0" shadow="0">
      <root>
        <mxCell id="0" />
        <mxCell id="1" parent="0" />
        <mxCell id="nNclRDfmkJ6vKXNC9eAn-1" value="APP" style="shape=umlLifeline;perimeter=lifelinePerimeter;whiteSpace=wrap;html=1;container=1;dropTarget=0;collapsible=0;recursiveResize=0;outlineConnect=0;portConstraint=eastwest;newEdgeStyle={&quot;curved&quot;:0,&quot;rounded&quot;:0};participant=umlEntity;" parent="1" vertex="1">
          <mxGeometry x="160" y="50" width="40" height="1150" as="geometry" />
        </mxCell>
        <mxCell id="nNclRDfmkJ6vKXNC9eAn-5" value="" style="html=1;points=[[0,0,0,0,5],[0,1,0,0,-5],[1,0,0,0,5],[1,1,0,0,-5]];perimeter=orthogonalPerimeter;outlineConnect=0;targetShapes=umlLifeline;portConstraint=eastwest;newEdgeStyle={&quot;curved&quot;:0,&quot;rounded&quot;:0};" parent="nNclRDfmkJ6vKXNC9eAn-1" vertex="1">
          <mxGeometry x="16" y="90" width="10" height="40" as="geometry" />
        </mxCell>
        <mxCell id="nNclRDfmkJ6vKXNC9eAn-6" value="登录" style="html=1;align=left;spacingLeft=2;endArrow=block;rounded=0;edgeStyle=orthogonalEdgeStyle;curved=0;rounded=0;" parent="nNclRDfmkJ6vKXNC9eAn-1" target="nNclRDfmkJ6vKXNC9eAn-5" edge="1">
          <mxGeometry relative="1" as="geometry">
            <mxPoint x="21" y="70" as="sourcePoint" />
            <Array as="points">
              <mxPoint x="51" y="70" />
              <mxPoint x="51" y="100" />
            </Array>
          </mxGeometry>
        </mxCell>
        <mxCell id="nNclRDfmkJ6vKXNC9eAn-23" value="" style="html=1;points=[[0,0,0,0,5],[0,1,0,0,-5],[1,0,0,0,5],[1,1,0,0,-5]];perimeter=orthogonalPerimeter;outlineConnect=0;targetShapes=umlLifeline;portConstraint=eastwest;newEdgeStyle={&quot;curved&quot;:0,&quot;rounded&quot;:0};" parent="nNclRDfmkJ6vKXNC9eAn-1" vertex="1">
          <mxGeometry x="16" y="722" width="10" height="40" as="geometry" />
        </mxCell>
        <mxCell id="nNclRDfmkJ6vKXNC9eAn-24" value="从前台返回到后台" style="html=1;align=left;spacingLeft=2;endArrow=block;rounded=0;edgeStyle=orthogonalEdgeStyle;curved=0;rounded=0;" parent="nNclRDfmkJ6vKXNC9eAn-1" target="nNclRDfmkJ6vKXNC9eAn-23" edge="1">
          <mxGeometry relative="1" as="geometry">
            <mxPoint x="21" y="702" as="sourcePoint" />
            <Array as="points">
              <mxPoint x="51" y="732" />
            </Array>
          </mxGeometry>
        </mxCell>
        <mxCell id="nNclRDfmkJ6vKXNC9eAn-32" value="" style="html=1;points=[[0,0,0,0,5],[0,1,0,0,-5],[1,0,0,0,5],[1,1,0,0,-5]];perimeter=orthogonalPerimeter;outlineConnect=0;targetShapes=umlLifeline;portConstraint=eastwest;newEdgeStyle={&quot;curved&quot;:0,&quot;rounded&quot;:0};" parent="nNclRDfmkJ6vKXNC9eAn-1" vertex="1">
          <mxGeometry x="16" y="847" width="10" height="40" as="geometry" />
        </mxCell>
        <mxCell id="nNclRDfmkJ6vKXNC9eAn-33" value="从后台返回到前台" style="html=1;align=left;spacingLeft=2;endArrow=block;rounded=0;edgeStyle=orthogonalEdgeStyle;curved=0;rounded=0;" parent="nNclRDfmkJ6vKXNC9eAn-1" target="nNclRDfmkJ6vKXNC9eAn-32" edge="1">
          <mxGeometry relative="1" as="geometry">
            <mxPoint x="21" y="827" as="sourcePoint" />
            <Array as="points">
              <mxPoint x="51" y="857" />
            </Array>
          </mxGeometry>
        </mxCell>
        <mxCell id="nNclRDfmkJ6vKXNC9eAn-38" value="" style="html=1;points=[[0,0,0,0,5],[0,1,0,0,-5],[1,0,0,0,5],[1,1,0,0,-5]];perimeter=orthogonalPerimeter;outlineConnect=0;targetShapes=umlLifeline;portConstraint=eastwest;newEdgeStyle={&quot;curved&quot;:0,&quot;rounded&quot;:0};" parent="nNclRDfmkJ6vKXNC9eAn-1" vertex="1">
          <mxGeometry x="15" y="154" width="10" height="136" as="geometry" />
        </mxCell>
        <mxCell id="nNclRDfmkJ6vKXNC9eAn-47" value="" style="html=1;points=[[0,0,0,0,5],[0,1,0,0,-5],[1,0,0,0,5],[1,1,0,0,-5]];perimeter=orthogonalPerimeter;outlineConnect=0;targetShapes=umlLifeline;portConstraint=eastwest;newEdgeStyle={&quot;curved&quot;:0,&quot;rounded&quot;:0};" parent="nNclRDfmkJ6vKXNC9eAn-1" vertex="1">
          <mxGeometry x="16" y="444" width="10" height="56" as="geometry" />
        </mxCell>
        <mxCell id="Sro1t2QZs1nTXlGURhuy-2" value="" style="html=1;points=[[0,0,0,0,5],[0,1,0,0,-5],[1,0,0,0,5],[1,1,0,0,-5]];perimeter=orthogonalPerimeter;outlineConnect=0;targetShapes=umlLifeline;portConstraint=eastwest;newEdgeStyle={&quot;curved&quot;:0,&quot;rounded&quot;:0};" vertex="1" parent="nNclRDfmkJ6vKXNC9eAn-1">
          <mxGeometry x="16" y="944" width="10" height="196" as="geometry" />
        </mxCell>
        <mxCell id="Sro1t2QZs1nTXlGURhuy-3" value="登出" style="html=1;align=left;spacingLeft=2;endArrow=block;rounded=0;edgeStyle=orthogonalEdgeStyle;curved=0;rounded=0;" edge="1" parent="nNclRDfmkJ6vKXNC9eAn-1">
          <mxGeometry relative="1" as="geometry">
            <mxPoint x="25" y="922" as="sourcePoint" />
            <Array as="points">
              <mxPoint x="55" y="952" />
            </Array>
            <mxPoint x="26" y="952" as="targetPoint" />
          </mxGeometry>
        </mxCell>
        <mxCell id="nNclRDfmkJ6vKXNC9eAn-2" value="Ab ser" style="shape=umlLifeline;perimeter=lifelinePerimeter;whiteSpace=wrap;html=1;container=1;dropTarget=0;collapsible=0;recursiveResize=0;outlineConnect=0;portConstraint=eastwest;newEdgeStyle={&quot;curved&quot;:0,&quot;rounded&quot;:0};participant=umlEntity;" parent="1" vertex="1">
          <mxGeometry x="320" y="50" width="40" height="1140" as="geometry" />
        </mxCell>
        <mxCell id="nNclRDfmkJ6vKXNC9eAn-11" value="" style="html=1;points=[[0,0,0,0,5],[0,1,0,0,-5],[1,0,0,0,5],[1,1,0,0,-5]];perimeter=orthogonalPerimeter;outlineConnect=0;targetShapes=umlLifeline;portConstraint=eastwest;newEdgeStyle={&quot;curved&quot;:0,&quot;rounded&quot;:0};" parent="nNclRDfmkJ6vKXNC9eAn-2" vertex="1">
          <mxGeometry x="15" y="152" width="10" height="52" as="geometry" />
        </mxCell>
        <mxCell id="nNclRDfmkJ6vKXNC9eAn-44" value="" style="html=1;points=[[0,0,0,0,5],[0,1,0,0,-5],[1,0,0,0,5],[1,1,0,0,-5]];perimeter=orthogonalPerimeter;outlineConnect=0;targetShapes=umlLifeline;portConstraint=eastwest;newEdgeStyle={&quot;curved&quot;:0,&quot;rounded&quot;:0};" parent="nNclRDfmkJ6vKXNC9eAn-2" vertex="1">
          <mxGeometry x="15" y="444" width="10" height="56" as="geometry" />
        </mxCell>
        <mxCell id="Sro1t2QZs1nTXlGURhuy-4" value="" style="html=1;points=[[0,0,0,0,5],[0,1,0,0,-5],[1,0,0,0,5],[1,1,0,0,-5]];perimeter=orthogonalPerimeter;outlineConnect=0;targetShapes=umlLifeline;portConstraint=eastwest;newEdgeStyle={&quot;curved&quot;:0,&quot;rounded&quot;:0};" vertex="1" parent="nNclRDfmkJ6vKXNC9eAn-2">
          <mxGeometry x="15" y="1000" width="10" height="50" as="geometry" />
        </mxCell>
        <mxCell id="nNclRDfmkJ6vKXNC9eAn-4" value="IM&amp;nbsp;&lt;span style=&quot;background-color: initial;&quot;&gt;ser&lt;/span&gt;" style="shape=umlLifeline;perimeter=lifelinePerimeter;whiteSpace=wrap;html=1;container=1;dropTarget=0;collapsible=0;recursiveResize=0;outlineConnect=0;portConstraint=eastwest;newEdgeStyle={&quot;curved&quot;:0,&quot;rounded&quot;:0};participant=umlEntity;" parent="1" vertex="1">
          <mxGeometry x="470" y="50" width="40" height="1150" as="geometry" />
        </mxCell>
        <mxCell id="nNclRDfmkJ6vKXNC9eAn-14" value="" style="html=1;points=[[0,0,0,0,5],[0,1,0,0,-5],[1,0,0,0,5],[1,1,0,0,-5]];perimeter=orthogonalPerimeter;outlineConnect=0;targetShapes=umlLifeline;portConstraint=eastwest;newEdgeStyle={&quot;curved&quot;:0,&quot;rounded&quot;:0};" parent="nNclRDfmkJ6vKXNC9eAn-4" vertex="1">
          <mxGeometry x="14" y="235" width="10" height="49" as="geometry" />
        </mxCell>
        <mxCell id="nNclRDfmkJ6vKXNC9eAn-17" value="" style="html=1;points=[[0,0,0,0,5],[0,1,0,0,-5],[1,0,0,0,5],[1,1,0,0,-5]];perimeter=orthogonalPerimeter;outlineConnect=0;targetShapes=umlLifeline;portConstraint=eastwest;newEdgeStyle={&quot;curved&quot;:0,&quot;rounded&quot;:0};" parent="nNclRDfmkJ6vKXNC9eAn-4" vertex="1">
          <mxGeometry x="14" y="338" width="10" height="46" as="geometry" />
        </mxCell>
        <mxCell id="nNclRDfmkJ6vKXNC9eAn-21" value="" style="html=1;points=[[0,0,0,0,5],[0,1,0,0,-5],[1,0,0,0,5],[1,1,0,0,-5]];perimeter=orthogonalPerimeter;outlineConnect=0;targetShapes=umlLifeline;portConstraint=eastwest;newEdgeStyle={&quot;curved&quot;:0,&quot;rounded&quot;:0};" parent="nNclRDfmkJ6vKXNC9eAn-4" vertex="1">
          <mxGeometry x="14" y="620" width="10" height="49" as="geometry" />
        </mxCell>
        <mxCell id="nNclRDfmkJ6vKXNC9eAn-30" value="" style="html=1;points=[[0,0,0,0,5],[0,1,0,0,-5],[1,0,0,0,5],[1,1,0,0,-5]];perimeter=orthogonalPerimeter;outlineConnect=0;targetShapes=umlLifeline;portConstraint=eastwest;newEdgeStyle={&quot;curved&quot;:0,&quot;rounded&quot;:0};" parent="nNclRDfmkJ6vKXNC9eAn-4" vertex="1">
          <mxGeometry x="16" y="778" width="10" height="40" as="geometry" />
        </mxCell>
        <mxCell id="nNclRDfmkJ6vKXNC9eAn-31" value="disconnect" style="html=1;align=left;spacingLeft=2;endArrow=block;rounded=0;edgeStyle=orthogonalEdgeStyle;curved=0;rounded=0;" parent="nNclRDfmkJ6vKXNC9eAn-4" edge="1">
          <mxGeometry relative="1" as="geometry">
            <mxPoint x="24" y="743" as="sourcePoint" />
            <Array as="points">
              <mxPoint x="54" y="773" />
            </Array>
            <mxPoint x="26" y="773" as="targetPoint" />
          </mxGeometry>
        </mxCell>
        <mxCell id="nNclRDfmkJ6vKXNC9eAn-35" value="" style="html=1;points=[[0,0,0,0,5],[0,1,0,0,-5],[1,0,0,0,5],[1,1,0,0,-5]];perimeter=orthogonalPerimeter;outlineConnect=0;targetShapes=umlLifeline;portConstraint=eastwest;newEdgeStyle={&quot;curved&quot;:0,&quot;rounded&quot;:0};" parent="nNclRDfmkJ6vKXNC9eAn-4" vertex="1">
          <mxGeometry x="17" y="887" width="10" height="40" as="geometry" />
        </mxCell>
        <mxCell id="nNclRDfmkJ6vKXNC9eAn-36" value="connect" style="html=1;align=left;spacingLeft=2;endArrow=block;rounded=0;edgeStyle=orthogonalEdgeStyle;curved=0;rounded=0;" parent="nNclRDfmkJ6vKXNC9eAn-4" target="nNclRDfmkJ6vKXNC9eAn-35" edge="1">
          <mxGeometry relative="1" as="geometry">
            <mxPoint x="24" y="867" as="sourcePoint" />
            <Array as="points">
              <mxPoint x="54" y="897" />
            </Array>
          </mxGeometry>
        </mxCell>
        <mxCell id="nNclRDfmkJ6vKXNC9eAn-50" value="" style="html=1;points=[[0,0,0,0,5],[0,1,0,0,-5],[1,0,0,0,5],[1,1,0,0,-5]];perimeter=orthogonalPerimeter;outlineConnect=0;targetShapes=umlLifeline;portConstraint=eastwest;newEdgeStyle={&quot;curved&quot;:0,&quot;rounded&quot;:0};" parent="nNclRDfmkJ6vKXNC9eAn-4" vertex="1">
          <mxGeometry x="13" y="444" width="10" height="56" as="geometry" />
        </mxCell>
        <mxCell id="Sro1t2QZs1nTXlGURhuy-8" value="" style="html=1;points=[[0,0,0,0,5],[0,1,0,0,-5],[1,0,0,0,5],[1,1,0,0,-5]];perimeter=orthogonalPerimeter;outlineConnect=0;targetShapes=umlLifeline;portConstraint=eastwest;newEdgeStyle={&quot;curved&quot;:0,&quot;rounded&quot;:0};" vertex="1" parent="nNclRDfmkJ6vKXNC9eAn-4">
          <mxGeometry x="14" y="1080" width="10" height="60" as="geometry" />
        </mxCell>
        <mxCell id="nNclRDfmkJ6vKXNC9eAn-12" value="IMLogin" style="html=1;verticalAlign=bottom;endArrow=block;curved=0;rounded=0;entryX=0;entryY=0;entryDx=0;entryDy=5;exitX=1;exitY=0;exitDx=0;exitDy=5;exitPerimeter=0;" parent="1" source="nNclRDfmkJ6vKXNC9eAn-38" target="nNclRDfmkJ6vKXNC9eAn-11" edge="1">
          <mxGeometry relative="1" as="geometry">
            <mxPoint x="190" y="207" as="sourcePoint" />
          </mxGeometry>
        </mxCell>
        <mxCell id="nNclRDfmkJ6vKXNC9eAn-13" value="返回AccessToken" style="html=1;verticalAlign=bottom;endArrow=open;dashed=1;endSize=8;curved=0;rounded=0;exitX=0;exitY=1;exitDx=0;exitDy=-5;" parent="1" source="nNclRDfmkJ6vKXNC9eAn-11" target="nNclRDfmkJ6vKXNC9eAn-1" edge="1">
          <mxGeometry relative="1" as="geometry">
            <mxPoint x="190" y="249" as="targetPoint" />
          </mxGeometry>
        </mxCell>
        <mxCell id="nNclRDfmkJ6vKXNC9eAn-15" value="IM connect" style="html=1;verticalAlign=bottom;endArrow=block;curved=0;rounded=0;entryX=0;entryY=0;entryDx=0;entryDy=5;" parent="1" target="nNclRDfmkJ6vKXNC9eAn-14" edge="1">
          <mxGeometry relative="1" as="geometry">
            <mxPoint x="185" y="290" as="sourcePoint" />
          </mxGeometry>
        </mxCell>
        <mxCell id="nNclRDfmkJ6vKXNC9eAn-16" value="回调连接结果" style="html=1;verticalAlign=bottom;endArrow=open;dashed=1;endSize=8;curved=0;rounded=0;exitX=0;exitY=1;exitDx=0;exitDy=-5;" parent="1" source="nNclRDfmkJ6vKXNC9eAn-14" edge="1">
          <mxGeometry relative="1" as="geometry">
            <mxPoint x="185" y="329" as="targetPoint" />
          </mxGeometry>
        </mxCell>
        <mxCell id="nNclRDfmkJ6vKXNC9eAn-18" value="ping" style="html=1;verticalAlign=bottom;endArrow=block;curved=0;rounded=0;entryX=0;entryY=0;entryDx=0;entryDy=5;" parent="1" target="nNclRDfmkJ6vKXNC9eAn-17" edge="1">
          <mxGeometry relative="1" as="geometry">
            <mxPoint x="179.66666666666663" y="393" as="sourcePoint" />
          </mxGeometry>
        </mxCell>
        <mxCell id="nNclRDfmkJ6vKXNC9eAn-19" value="pong" style="html=1;verticalAlign=bottom;endArrow=open;dashed=1;endSize=8;curved=0;rounded=0;exitX=0;exitY=1;exitDx=0;exitDy=-5;" parent="1" source="nNclRDfmkJ6vKXNC9eAn-17" edge="1">
          <mxGeometry relative="1" as="geometry">
            <mxPoint x="179.5" y="429" as="targetPoint" />
          </mxGeometry>
        </mxCell>
        <mxCell id="nNclRDfmkJ6vKXNC9eAn-20" value="loop" style="shape=umlFrame;whiteSpace=wrap;html=1;pointerEvents=0;" parent="1" vertex="1">
          <mxGeometry x="140" y="368" width="380" height="86" as="geometry" />
        </mxCell>
        <mxCell id="nNclRDfmkJ6vKXNC9eAn-22" value="回调IM消息" style="html=1;verticalAlign=bottom;endArrow=open;dashed=1;endSize=8;curved=0;rounded=0;" parent="1" edge="1">
          <mxGeometry relative="1" as="geometry">
            <mxPoint x="490" y="719" as="sourcePoint" />
            <mxPoint x="179.66666666666663" y="719" as="targetPoint" />
          </mxGeometry>
        </mxCell>
        <mxCell id="nNclRDfmkJ6vKXNC9eAn-29" value="断开连接" style="html=1;verticalAlign=bottom;startArrow=oval;startFill=1;endArrow=block;startSize=8;curved=0;rounded=0;" parent="1" edge="1">
          <mxGeometry width="60" relative="1" as="geometry">
            <mxPoint x="180" y="812" as="sourcePoint" />
            <mxPoint x="489.5000000000002" y="812" as="targetPoint" />
          </mxGeometry>
        </mxCell>
        <mxCell id="nNclRDfmkJ6vKXNC9eAn-34" value="重连" style="html=1;verticalAlign=bottom;startArrow=oval;startFill=1;endArrow=block;startSize=8;curved=0;rounded=0;" parent="1" edge="1">
          <mxGeometry width="60" relative="1" as="geometry">
            <mxPoint x="180" y="937" as="sourcePoint" />
            <mxPoint x="489.5000000000002" y="937" as="targetPoint" />
          </mxGeometry>
        </mxCell>
        <mxCell id="nNclRDfmkJ6vKXNC9eAn-45" value="调用API" style="html=1;verticalAlign=bottom;endArrow=block;curved=0;rounded=0;entryX=0;entryY=0;entryDx=0;entryDy=5;exitX=1;exitY=0;exitDx=0;exitDy=5;exitPerimeter=0;" parent="1" source="nNclRDfmkJ6vKXNC9eAn-47" target="nNclRDfmkJ6vKXNC9eAn-44" edge="1">
          <mxGeometry x="-0.0045" relative="1" as="geometry">
            <mxPoint x="265" y="499" as="sourcePoint" />
            <mxPoint as="offset" />
          </mxGeometry>
        </mxCell>
        <mxCell id="nNclRDfmkJ6vKXNC9eAn-46" value="返回请求结果" style="html=1;verticalAlign=bottom;endArrow=open;dashed=1;endSize=8;curved=0;rounded=0;exitX=0;exitY=1;exitDx=0;exitDy=-5;entryX=1;entryY=1;entryDx=0;entryDy=-5;entryPerimeter=0;" parent="1" source="nNclRDfmkJ6vKXNC9eAn-44" target="nNclRDfmkJ6vKXNC9eAn-47" edge="1">
          <mxGeometry relative="1" as="geometry">
            <mxPoint x="265" y="569" as="targetPoint" />
          </mxGeometry>
        </mxCell>
        <mxCell id="nNclRDfmkJ6vKXNC9eAn-51" value="发送IM消息" style="html=1;verticalAlign=bottom;endArrow=block;curved=0;rounded=0;entryX=0;entryY=0;entryDx=0;entryDy=5;exitX=1;exitY=0;exitDx=0;exitDy=5;exitPerimeter=0;" parent="1" source="nNclRDfmkJ6vKXNC9eAn-44" target="nNclRDfmkJ6vKXNC9eAn-50" edge="1">
          <mxGeometry relative="1" as="geometry">
            <mxPoint x="413" y="499" as="sourcePoint" />
          </mxGeometry>
        </mxCell>
        <mxCell id="nNclRDfmkJ6vKXNC9eAn-52" value="" style="html=1;verticalAlign=bottom;endArrow=open;dashed=1;endSize=8;curved=0;rounded=0;exitX=0;exitY=1;exitDx=0;exitDy=-5;" parent="1" source="nNclRDfmkJ6vKXNC9eAn-50" target="nNclRDfmkJ6vKXNC9eAn-2" edge="1">
          <mxGeometry relative="1" as="geometry">
            <mxPoint x="339.5" y="569" as="targetPoint" />
          </mxGeometry>
        </mxCell>
        <mxCell id="nNclRDfmkJ6vKXNC9eAn-53" value="返回发送结果" style="text;html=1;align=center;verticalAlign=middle;resizable=0;points=[];autosize=1;strokeColor=none;fillColor=none;" parent="1" vertex="1">
          <mxGeometry x="370" y="544" width="100" height="30" as="geometry" />
        </mxCell>
        <mxCell id="nNclRDfmkJ6vKXNC9eAn-57" value="" style="html=1;points=[[0,0,0,0,5],[0,1,0,0,-5],[1,0,0,0,5],[1,1,0,0,-5]];perimeter=orthogonalPerimeter;outlineConnect=0;targetShapes=umlLifeline;portConstraint=eastwest;newEdgeStyle={&quot;curved&quot;:0,&quot;rounded&quot;:0};" parent="1" vertex="1">
          <mxGeometry x="176" y="589" width="10" height="55" as="geometry" />
        </mxCell>
        <mxCell id="nNclRDfmkJ6vKXNC9eAn-54" value="" style="html=1;points=[[0,0,0,0,5],[0,1,0,0,-5],[1,0,0,0,5],[1,1,0,0,-5]];perimeter=orthogonalPerimeter;outlineConnect=0;targetShapes=umlLifeline;portConstraint=eastwest;newEdgeStyle={&quot;curved&quot;:0,&quot;rounded&quot;:0};" parent="1" vertex="1">
          <mxGeometry x="483" y="588" width="10" height="56" as="geometry" />
        </mxCell>
        <mxCell id="nNclRDfmkJ6vKXNC9eAn-55" value="发送IM消息" style="html=1;verticalAlign=bottom;endArrow=block;curved=0;rounded=0;entryX=0;entryY=0;entryDx=0;entryDy=5;" parent="1" source="nNclRDfmkJ6vKXNC9eAn-57" target="nNclRDfmkJ6vKXNC9eAn-54" edge="1">
          <mxGeometry x="-0.0011" relative="1" as="geometry">
            <mxPoint x="413" y="593" as="sourcePoint" />
            <mxPoint as="offset" />
          </mxGeometry>
        </mxCell>
        <mxCell id="nNclRDfmkJ6vKXNC9eAn-56" value="返回发送结果" style="html=1;verticalAlign=bottom;endArrow=open;dashed=1;endSize=8;curved=0;rounded=0;exitX=0;exitY=1;exitDx=0;exitDy=-5;" parent="1" source="nNclRDfmkJ6vKXNC9eAn-54" target="nNclRDfmkJ6vKXNC9eAn-57" edge="1">
          <mxGeometry relative="1" as="geometry">
            <mxPoint x="413" y="663" as="targetPoint" />
          </mxGeometry>
        </mxCell>
        <mxCell id="Sro1t2QZs1nTXlGURhuy-1" value="接收IM消息" style="html=1;align=left;spacingLeft=2;endArrow=block;rounded=0;edgeStyle=orthogonalEdgeStyle;curved=0;rounded=0;" edge="1" parent="1">
          <mxGeometry relative="1" as="geometry">
            <mxPoint x="490" y="657" as="sourcePoint" />
            <Array as="points">
              <mxPoint x="520" y="687" />
            </Array>
            <mxPoint x="492" y="687" as="targetPoint" />
          </mxGeometry>
        </mxCell>
        <mxCell id="Sro1t2QZs1nTXlGURhuy-5" value="IM logout" style="html=1;verticalAlign=bottom;endArrow=block;curved=0;rounded=0;entryX=0;entryY=0;entryDx=0;entryDy=5;" edge="1" target="Sro1t2QZs1nTXlGURhuy-4" parent="1">
          <mxGeometry relative="1" as="geometry">
            <mxPoint x="186" y="1055" as="sourcePoint" />
          </mxGeometry>
        </mxCell>
        <mxCell id="Sro1t2QZs1nTXlGURhuy-6" value="返回登出结果" style="html=1;verticalAlign=bottom;endArrow=open;dashed=1;endSize=8;curved=0;rounded=0;" edge="1" parent="1">
          <mxGeometry relative="1" as="geometry">
            <mxPoint x="186" y="1090" as="targetPoint" />
            <mxPoint x="335" y="1090" as="sourcePoint" />
          </mxGeometry>
        </mxCell>
        <mxCell id="Sro1t2QZs1nTXlGURhuy-9" value="disconnect" style="html=1;verticalAlign=bottom;endArrow=block;curved=0;rounded=0;entryX=0;entryY=0;entryDx=0;entryDy=5;exitX=1;exitY=0;exitDx=0;exitDy=5;exitPerimeter=0;" edge="1" target="Sro1t2QZs1nTXlGURhuy-8" parent="1">
          <mxGeometry relative="1" as="geometry">
            <mxPoint x="185" y="1135" as="sourcePoint" />
          </mxGeometry>
        </mxCell>
        <mxCell id="Sro1t2QZs1nTXlGURhuy-10" value="返回断开连接结果" style="html=1;verticalAlign=bottom;endArrow=open;dashed=1;endSize=8;curved=0;rounded=0;exitX=0;exitY=1;exitDx=0;exitDy=-5;entryX=1;entryY=1;entryDx=0;entryDy=-5;entryPerimeter=0;" edge="1" source="Sro1t2QZs1nTXlGURhuy-8" parent="1" target="Sro1t2QZs1nTXlGURhuy-2">
          <mxGeometry relative="1" as="geometry">
            <mxPoint x="190" y="1185" as="targetPoint" />
          </mxGeometry>
        </mxCell>
      </root>
    </mxGraphModel>
  </diagram>
</mxfile>
